<svg width="147" height="72" viewBox="0 0 147 72" fill="none" xmlns="http://www.w3.org/2000/svg">
<path d="M74.9345 37.1201C69.8994 37.0919 64.9766 35.6294 60.7429 32.9039L60.1344 32.5345L64.2201 24.4064L64.9808 25.015C67.9911 27.2488 71.6021 28.5282 75.3473 28.6878C77.3032 28.8182 78.3464 28.101 78.5203 27.3186C78.6941 26.5362 78.2161 25.6669 76.8252 25.1454C75.4615 24.6038 74.0683 24.1395 72.6524 23.7545C70.246 23.1793 67.9337 22.2646 65.7849 21.0379C65.2416 21.3421 64.6765 21.6464 64.1115 21.9941C62.9523 22.8055 61.5383 23.169 60.1316 23.0171C58.7248 22.8653 57.4209 22.2084 56.4617 21.1683C53.2452 17.8432 52.115 10.454 55.8313 4.73835C57.7003 1.80443 59.4825 0.391809 61.4819 0.0440862C63.8508 -0.281904 66.0023 1.23938 68.3494 3.30399C74.0868 0.696067 81.5411 2.43468 86.9526 5.73805L87.5828 6.12924L83.6709 13.5184H83.1711C76.9338 13.2576 72.4568 9.17182 68.871 5.91191L68.0886 5.21647C67.5842 5.50212 67.1044 5.82924 66.6542 6.19444C65.6639 7.02622 64.8572 8.05447 64.2849 9.21414C63.7125 10.3738 63.3871 11.6397 63.3291 12.9316C63.2213 13.9674 63.3384 15.0142 63.6722 16.0006C64.006 16.9871 64.5487 17.8898 65.2634 18.6473C65.46 18.8582 65.6786 19.0476 65.9153 19.2123C73.8478 15.1483 78.9549 15.7134 81.8671 17.0391C83.9394 17.7111 85.711 19.0877 86.8742 20.9297C88.0374 22.7718 88.5189 24.963 88.2349 27.123C88.1422 29.4202 87.2622 31.6156 85.7427 33.3409C84.2232 35.0662 82.1565 36.2164 79.8894 36.5985C78.2628 36.9589 76.6005 37.1339 74.9345 37.1201ZM62.199 31.9694C67.4075 35.1286 73.6105 36.2219 79.5852 35.0337C81.5095 34.7056 83.2622 33.7248 84.5485 32.2565C85.8348 30.7881 86.5762 28.9217 86.6483 26.9709C86.8725 25.1525 86.4605 23.3125 85.4819 21.7635C84.5034 20.2145 83.0188 19.052 81.2804 18.4734C77.7162 16.9087 73.0002 17.4954 67.4367 20.1903C69.2394 21.059 71.1251 21.7434 73.0653 22.2332C74.5392 22.6319 75.9902 23.1108 77.4119 23.6675C78.268 23.8842 79.0133 24.4109 79.5032 25.1457C79.993 25.8805 80.1926 26.771 80.0633 27.6446C79.7808 28.992 78.3247 30.4916 75.2821 30.2525C71.5312 30.1104 67.895 28.9209 64.7852 26.8188L62.199 31.9694ZM62.199 1.54364H61.7861C60.33 1.73924 58.8523 3.0432 57.2658 5.54246C54.0928 10.5192 54.962 17.1695 57.7003 19.9947C58.4213 20.7679 59.3996 21.2518 60.4517 21.3558C61.5037 21.4598 62.5576 21.1768 63.416 20.5598L64.5244 19.9295L64.2636 19.6904C63.387 18.7716 62.7179 17.6752 62.3017 16.4754C61.8855 15.2755 61.732 14.0003 61.8513 12.736C61.9213 11.2474 62.2924 9.78843 62.9423 8.44739C63.5923 7.10635 64.5076 5.9111 65.6328 4.93394C66.0083 4.63708 66.4001 4.36137 66.8063 4.1081C65.5544 2.77193 63.8969 1.88585 62.0904 1.58711L62.199 1.54364ZM69.7621 4.41236L70.0446 4.67315C73.5218 7.84612 77.4336 11.4103 82.8668 11.8449L85.6052 6.67256C80.8457 3.99944 74.5649 2.58681 69.6533 4.45582L69.7621 4.41236Z" fill="#0B0C0D"/>
<path d="M14.2349 56.6795C13.9669 56.4346 13.6759 56.2162 13.3657 56.0276C12.9407 55.7835 12.4975 55.5728 12.04 55.3973C11.4875 55.1965 10.9208 55.0367 10.3448 54.9192C9.73068 54.7867 9.10405 54.7211 8.47581 54.7236C7.38431 54.6433 6.2939 54.8932 5.34629 55.4408C5.02427 55.6468 4.76228 55.9341 4.58676 56.2737C4.41124 56.6133 4.32834 56.9931 4.34654 57.375C4.33869 57.7798 4.4441 58.1787 4.65083 58.5268C4.91992 58.8517 5.25279 59.118 5.62883 59.3092C6.15893 59.5582 6.71215 59.7547 7.28053 59.896L9.5842 60.4393C10.6708 60.6856 11.6487 60.9464 12.5181 61.2217C13.2854 61.4814 14.0159 61.8393 14.6913 62.2866C15.2737 62.6708 15.7516 63.1935 16.0823 63.8079C16.4269 64.4795 16.5986 65.2264 16.5821 65.9811C16.6077 66.8607 16.3977 67.7311 15.9736 68.5021C15.5587 69.1997 14.9759 69.7824 14.2784 70.1973C13.5284 70.6744 12.6953 71.0062 11.8226 71.1753C10.823 71.3905 9.80249 71.4926 8.7801 71.4795C7.19257 71.4825 5.61238 71.263 4.08576 70.8275C2.62721 70.4106 1.24694 69.7572 0 68.8933L1.52132 66.3071C1.87177 66.6039 2.25023 66.866 2.65139 67.0895C3.20515 67.3955 3.77874 67.6641 4.36829 67.8936C5.07877 68.1433 5.80473 68.3466 6.54156 68.5021C7.31882 68.6782 8.11355 68.7656 8.91049 68.7629C9.96903 68.8185 11.0241 68.6015 11.9747 68.1327C12.3067 67.9603 12.583 67.6972 12.7715 67.3741C12.96 67.0509 13.0529 66.681 13.0396 66.3071C13.0545 65.8683 12.9162 65.4381 12.6484 65.0901C12.3278 64.7303 11.9355 64.4416 11.4967 64.2425C10.9088 63.9712 10.2978 63.7531 9.67108 63.5905L7.15014 63.0255C6.10697 62.7647 5.17243 62.5039 4.39005 62.2214C3.68205 61.995 3.0145 61.6575 2.41236 61.2217C1.9241 60.8495 1.52346 60.3747 1.23878 59.8308C0.954333 59.2263 0.813029 58.5645 0.825853 57.8966C0.818698 57.026 1.02779 56.1672 1.43437 55.3973C1.83178 54.6728 2.38924 54.0484 3.06432 53.5718C3.80421 53.0482 4.63806 52.6719 5.52019 52.4634C6.51194 52.1956 7.53545 52.064 8.56269 52.0722C9.92123 52.0608 11.2724 52.2738 12.5616 52.7025C13.6882 53.0683 14.7621 53.5797 15.7562 54.2238L14.2349 56.6795Z" fill="#0B0C0D"/>
<path d="M29.4262 52.1591H32.6208L35.2287 58.6789L37.8583 52.1591H41.0096L37.3803 60.8522L40.5533 67.8936L47.0731 52.2461H50.7675L41.9658 71.4143H39.0971L35.207 62.7429L31.2299 71.3274H28.3395L19.6464 52.1591H23.2975L29.9477 67.8067L33.0337 60.8522L29.4262 52.1591Z" fill="#0B0C0D"/>
<path d="M70.3922 68.6542V71.3274H55.7878V52.1591H70.1097V54.8322H59.2434V60.2871H68.7623V62.7864H59.113V68.6542H70.3922Z" fill="#0B0C0D"/>
<path d="M94.1461 71.3274V57.5271L87.8219 67.9805H85.9746L79.6069 57.5271V71.3274H76.2601V52.1591H79.8677L86.909 63.873L93.8853 52.1591H97.4712V71.3274H94.1461Z" fill="#0B0C0D"/>
<path d="M113.575 71.4577C112.149 71.4721 110.736 71.1909 109.424 70.6319C108.223 70.1207 107.13 69.3828 106.208 68.4586C105.287 67.5744 104.549 66.5186 104.034 65.3508C103.557 64.2151 103.306 62.997 103.296 61.7649C103.293 60.499 103.56 59.2471 104.078 58.0921C104.602 56.9296 105.339 55.8755 106.251 54.9843C108.214 53.0853 110.844 52.0319 113.575 52.0504C115.004 52.0304 116.42 52.3195 117.726 52.898C118.929 53.4063 120.022 54.1445 120.943 55.0713C121.816 55.9716 122.516 57.0251 123.007 58.179C123.501 59.3176 123.756 60.5455 123.756 61.7867C123.756 63.0278 123.501 64.2557 123.007 65.3943C122.488 66.5532 121.75 67.6011 120.834 68.4803C119.898 69.4083 118.791 70.1463 117.574 70.6536C116.31 71.1924 114.949 71.4661 113.575 71.4577ZM106.925 61.7432C106.921 62.6346 107.083 63.5189 107.403 64.3511C107.704 65.1574 108.162 65.896 108.751 66.5244C109.364 67.1853 110.103 67.7172 110.924 68.0891C111.817 68.4838 112.783 68.6876 113.76 68.6876C114.737 68.6876 115.703 68.4838 116.596 68.0891C117.42 67.7019 118.158 67.1553 118.769 66.4809C119.332 65.8413 119.774 65.105 120.073 64.3076C120.375 63.4939 120.53 62.6329 120.53 61.7649C120.512 60.8532 120.32 59.9532 119.965 59.1135C119.641 58.3137 119.177 57.5778 118.595 56.9403C117.977 56.291 117.239 55.7671 116.422 55.3972C115.553 55.0146 114.612 54.8219 113.662 54.8322C112.665 54.8112 111.676 55.0194 110.772 55.4407C109.968 55.8075 109.247 56.3338 108.653 56.9875C108.059 57.6413 107.604 58.409 107.316 59.2439C107.041 60.0479 106.909 60.8937 106.925 61.7432Z" fill="#0B0C0D"/>
<path d="M128.332 61.6128C128.356 59.1693 129.33 56.8311 131.048 55.093C131.985 54.1654 133.092 53.4275 134.308 52.9197C135.681 52.3332 137.162 52.0444 138.655 52.0722C140.387 52.0243 142.103 52.4288 143.631 53.2457C144.93 53.9409 146.008 54.9878 146.739 56.2666L144.11 57.8531C143.826 57.3135 143.46 56.822 143.023 56.397C142.616 56.0078 142.146 55.6916 141.632 55.4625C141.146 55.2183 140.626 55.0498 140.089 54.9626C139.574 54.8602 139.05 54.8093 138.524 54.8105C137.512 54.7828 136.508 54.9911 135.59 55.419C134.758 55.7822 134.016 56.3238 133.417 57.0055C132.856 57.6462 132.415 58.3823 132.113 59.1788C131.832 59.9749 131.685 60.8121 131.678 61.6563C131.675 62.5729 131.852 63.4813 132.2 64.3294C132.529 65.1369 133.008 65.8745 133.613 66.5027C134.238 67.1438 134.975 67.6665 135.786 68.0457C136.652 68.4404 137.594 68.6407 138.546 68.6325C139.086 68.6272 139.625 68.5689 140.154 68.4586C140.704 68.3356 141.237 68.1459 141.741 67.8936C142.259 67.6334 142.735 67.2964 143.153 66.8939C143.59 66.491 143.951 66.0124 144.218 65.4812L147 66.8939C146.652 67.619 146.164 68.2688 145.566 68.8063C144.904 69.3607 144.173 69.8282 143.392 70.1972C142.609 70.5732 141.785 70.8576 140.937 71.0448C140.097 71.2505 139.236 71.3527 138.372 71.3491C136.955 71.3701 135.552 71.073 134.265 70.4798C133.069 69.9581 131.978 69.2215 131.048 68.3065C130.129 67.4045 129.391 66.3348 128.875 65.1552C128.465 64.021 128.281 62.8177 128.332 61.6128Z" fill="#0B0C0D"/>
</svg>
