<svg width="94" height="46" viewBox="0 0 94 46" fill="none" xmlns="http://www.w3.org/2000/svg">
<path d="M48.1245 23.4253C44.947 23.4075 41.8404 22.4846 39.1687 20.7647L38.7846 20.5315L41.363 15.4022L41.8431 15.7862C43.7427 17.1959 46.0215 18.0033 48.385 18.104C49.6193 18.1863 50.2777 17.7337 50.3874 17.24C50.4971 16.7462 50.1954 16.1976 49.3177 15.8685C48.4571 15.5267 47.5779 15.2337 46.6844 14.9907C45.1657 14.6277 43.7065 14.0505 42.3505 13.2764C42.0076 13.4684 41.651 13.6604 41.2944 13.8798C40.5629 14.3919 39.6706 14.6212 38.7828 14.5254C37.8951 14.4296 37.0722 14.015 36.4669 13.3586C34.4371 11.2603 33.7238 6.59723 36.0691 2.99023C37.2486 1.13872 38.3732 0.247259 39.635 0.0278215C41.1299 -0.177901 42.4876 0.782138 43.9688 2.08505C47.5896 0.439267 52.2938 1.53645 55.7088 3.62111L56.1065 3.86798L53.6378 8.53102H53.3224C49.3862 8.36645 46.5609 5.78806 44.298 3.73083L43.8043 3.29195C43.486 3.47222 43.1831 3.67866 42.8991 3.90912C42.2741 4.43403 41.765 5.08293 41.4038 5.81476C41.0426 6.5466 40.8373 7.34543 40.8007 8.16072C40.7327 8.81437 40.8065 9.47501 41.0172 10.0975C41.2279 10.72 41.5704 11.2897 42.0214 11.7677C42.1455 11.9009 42.2834 12.0204 42.4328 12.1243C47.4387 9.55964 50.6617 9.91622 52.4994 10.7528C53.8072 11.1769 54.9252 12.0456 55.6593 13.2081C56.3933 14.3706 56.6972 15.7534 56.518 17.1165C56.4595 18.5662 55.9042 19.9516 54.9452 21.0404C53.9863 22.1292 52.6821 22.855 51.2514 23.0962C50.2249 23.3236 49.1759 23.4341 48.1245 23.4253ZM40.0875 20.1749C43.3744 22.1686 47.289 22.8585 51.0594 22.1087C52.2738 21.9016 53.3799 21.2827 54.1916 20.3561C55.0034 19.4294 55.4712 18.2516 55.5167 17.0205C55.6582 15.873 55.3982 14.7118 54.7807 13.7343C54.1632 12.7567 53.2263 12.0231 52.1292 11.658C49.88 10.6705 46.9038 11.0408 43.3928 12.7415C44.5305 13.2897 45.7205 13.7216 46.9449 14.0307C47.875 14.2823 48.7907 14.5845 49.6879 14.9359C50.2282 15.0726 50.6985 15.405 51.0077 15.8687C51.3168 16.3324 51.4428 16.8944 51.3612 17.4457C51.1829 18.296 50.264 19.2423 48.3439 19.0915C45.9768 19.0018 43.6821 18.2511 41.7196 16.9245L40.0875 20.1749ZM40.0875 0.974146H39.8269C38.908 1.09758 37.9755 1.92047 36.9743 3.49768C34.9719 6.63838 35.5205 10.8351 37.2485 12.618C37.7036 13.106 38.3209 13.4114 38.9848 13.477C39.6488 13.5426 40.3138 13.364 40.8556 12.9746L41.555 12.5769L41.3905 12.426C40.8372 11.8462 40.415 11.1543 40.1523 10.3971C39.8897 9.63993 39.7928 8.83517 39.8681 8.03729C39.9123 7.09788 40.1465 6.17718 40.5566 5.33089C40.9668 4.4846 41.5444 3.73032 42.2545 3.11366C42.4915 2.92632 42.7387 2.75233 42.9951 2.5925C42.205 1.74928 41.159 1.1901 40.019 1.00158L40.0875 0.974146ZM44.8603 2.7845L45.0386 2.94908C47.233 4.95145 49.7016 7.20068 53.1304 7.47498L54.8584 4.21085C51.8549 2.52392 47.8913 1.63246 44.7917 2.81193L44.8603 2.7845Z" fill="#0B0C0D"/>
<path d="M9.8189 35.7687C9.64979 35.6141 9.46611 35.4763 9.27036 35.3573C9.00219 35.2033 8.7225 35.0703 8.43377 34.9595C8.08507 34.8328 7.72748 34.732 7.36397 34.6578C6.97643 34.5742 6.58098 34.5328 6.18452 34.5344C5.49571 34.4837 4.80758 34.6414 4.20958 34.987C4.00635 35.117 3.84103 35.2983 3.73026 35.5126C3.61949 35.7269 3.56718 35.9666 3.57866 36.2076C3.57371 36.463 3.64023 36.7148 3.77069 36.9345C3.9405 37.1395 4.15057 37.3076 4.38787 37.4282C4.7224 37.5854 5.07152 37.7094 5.43022 37.7985L6.88399 38.1414C7.56973 38.2968 8.18686 38.4614 8.73546 38.6351C9.2197 38.799 9.68069 39.0249 10.1069 39.3072C10.4745 39.5496 10.7761 39.8795 10.9847 40.2672C11.2022 40.691 11.3106 41.1624 11.3001 41.6387C11.3163 42.1937 11.1838 42.743 10.9162 43.2296C10.6543 43.6698 10.2865 44.0375 9.84636 44.2994C9.37306 44.6005 8.84731 44.8098 8.29657 44.9165C7.66578 45.0524 7.02175 45.1168 6.37654 45.1085C5.3747 45.1104 4.3775 44.9719 3.41409 44.6971C2.49364 44.434 1.6226 44.0216 0.835693 43.4765L1.79575 41.8444C2.01691 42.0317 2.25574 42.1971 2.50891 42.3381C2.85837 42.5312 3.22034 42.7007 3.59239 42.8456C4.04075 43.0032 4.49888 43.1314 4.96387 43.2296C5.45438 43.3407 5.95591 43.3959 6.45883 43.3942C7.12684 43.4293 7.79264 43.2923 8.39259 42.9964C8.60209 42.8876 8.77647 42.7216 8.89542 42.5177C9.01438 42.3138 9.07301 42.0803 9.0646 41.8444C9.07398 41.5675 8.98671 41.296 8.81774 41.0764C8.6154 40.8493 8.36784 40.6671 8.0909 40.5415C7.71991 40.3703 7.33432 40.2326 6.93882 40.13L5.34793 39.7735C4.68962 39.6089 4.09985 39.4443 3.60612 39.266C3.15932 39.1231 2.73805 38.9102 2.35806 38.6351C2.04993 38.4003 1.7971 38.1006 1.61745 37.7574C1.43794 37.3759 1.34877 36.9582 1.35686 36.5368C1.35235 35.9873 1.4843 35.4454 1.74088 34.9595C1.99167 34.5023 2.34347 34.1083 2.76949 33.8075C3.23642 33.4771 3.76263 33.2396 4.31932 33.108C4.94518 32.939 5.59108 32.856 6.23935 32.8612C7.09668 32.854 7.94935 32.9884 8.76291 33.2589C9.47387 33.4898 10.1516 33.8125 10.779 34.2189L9.8189 35.7687Z" fill="#0B0C0D"/>
<path d="M19.4056 32.916H21.4216L23.0674 37.0305L24.7268 32.916H26.7155L24.4252 38.402L26.4276 42.8456L30.542 32.9709H32.8735L27.319 45.0674H25.5086L23.0537 39.5951L20.5438 45.0125H18.7198L13.2339 32.916H15.538L19.7347 42.7907L21.6822 38.402L19.4056 32.916Z" fill="#0B0C0D"/>
<path d="M45.2582 43.3256V45.0125H36.0417V32.916H45.0799V34.6029H38.2224V38.0454H44.2296V39.6226H38.1402V43.3256H45.2582Z" fill="#0B0C0D"/>
<path d="M60.2485 45.0125V36.3036L56.2575 42.9004H55.0917L51.0732 36.3036V45.0125H48.9612V32.916H51.2378L55.6814 40.3083L60.0839 32.916H62.3469V45.0125H60.2485Z" fill="#0B0C0D"/>
<path d="M72.5096 45.0948C71.6098 45.1038 70.7179 44.9264 69.8901 44.5736C69.1317 44.251 68.4425 43.7854 67.8602 43.2021C67.2795 42.6441 66.8135 41.9779 66.4887 41.2409C66.1873 40.5242 66.029 39.7554 66.0225 38.9779C66.0209 38.1791 66.1892 37.389 66.5162 36.6601C66.8469 35.9265 67.3121 35.2613 67.8877 34.6989C69.1265 33.5005 70.786 32.8357 72.5096 32.8474C73.4111 32.8348 74.3047 33.0173 75.1291 33.3823C75.8884 33.7031 76.578 34.1689 77.1589 34.7538C77.7099 35.322 78.1516 35.9868 78.4618 36.715C78.7736 37.4335 78.9345 38.2084 78.9345 38.9917C78.9345 39.7749 78.7736 40.5498 78.4618 41.2683C78.1343 41.9997 77.6686 42.661 77.0904 43.2158C76.4995 43.8015 75.801 44.2672 75.0331 44.5873C74.2355 44.9273 73.3766 45.1001 72.5096 45.0948ZM68.3128 38.9642C68.3106 39.5268 68.4128 40.0849 68.6145 40.61C68.8046 41.1188 69.0937 41.5849 69.4649 41.9815C69.8519 42.3986 70.3181 42.7343 70.8364 42.969C71.4002 43.218 72.0098 43.3466 72.6262 43.3466C73.2425 43.3466 73.8521 43.218 74.4159 42.969C74.9357 42.7246 75.4018 42.3796 75.7874 41.9541C76.1424 41.5504 76.4212 41.0858 76.6103 40.5826C76.8009 40.0691 76.8985 39.5257 76.8983 38.9779C76.8873 38.4026 76.7662 37.8346 76.5417 37.3047C76.3373 36.8 76.0447 36.3356 75.6777 35.9333C75.2874 35.5235 74.8217 35.1929 74.3062 34.9595C73.7576 34.718 73.1638 34.5964 72.5644 34.6029C71.935 34.5897 71.311 34.7211 70.7404 34.9869C70.2333 35.2184 69.7785 35.5505 69.4036 35.9631C69.0288 36.3757 68.7416 36.8601 68.5597 37.387C68.3863 37.8944 68.3027 38.4281 68.3128 38.9642Z" fill="#0B0C0D"/>
<path d="M81.8218 38.882C81.8374 37.3399 82.4522 35.8644 83.5362 34.7675C84.1272 34.1822 84.8258 33.7165 85.5934 33.396C86.4597 33.0259 87.3946 32.8436 88.3364 32.8612C89.4299 32.831 90.5124 33.0862 91.4771 33.6018C92.2969 34.0405 92.9766 34.7011 93.4384 35.5081L91.7788 36.5093C91.6001 36.1688 91.3687 35.8587 91.0931 35.5904C90.8366 35.3448 90.5397 35.1453 90.2153 35.0007C89.9087 34.8466 89.5804 34.7403 89.2416 34.6852C88.9165 34.6206 88.5856 34.5885 88.2541 34.5892C87.6155 34.5718 86.9816 34.7032 86.4026 34.9733C85.8776 35.2024 85.4094 35.5442 85.0312 35.9744C84.6771 36.3788 84.3985 36.8433 84.2083 37.3459C84.031 37.8483 83.9383 38.3767 83.934 38.9094C83.9318 39.4879 84.0436 40.0611 84.2631 40.5963C84.4705 41.1059 84.7731 41.5714 85.1546 41.9678C85.5494 42.3724 86.014 42.7023 86.5261 42.9416C87.0727 43.1907 87.6672 43.3171 88.2678 43.3119C88.6089 43.3085 88.9488 43.2718 89.2827 43.2022C89.6297 43.1246 89.966 43.0048 90.284 42.8456C90.6112 42.6814 90.9117 42.4687 91.1754 42.2147C91.4513 41.9605 91.6789 41.6584 91.8474 41.3232L93.6029 42.2147C93.383 42.6723 93.0756 43.0824 92.6978 43.4216C92.2799 43.7715 91.819 44.0664 91.3263 44.2993C90.832 44.5366 90.312 44.7161 89.7765 44.8342C89.2469 44.964 88.7034 45.0285 88.1581 45.0262C87.2639 45.0395 86.3782 44.852 85.5661 44.4776C84.8113 44.1484 84.1233 43.6836 83.5362 43.1062C82.9563 42.5369 82.4907 41.8619 82.1647 41.1175C81.9063 40.4017 81.7898 39.6424 81.8218 38.882Z" fill="#0B0C0D"/>
</svg>
